<mxfile host="app.diagrams.net" modified="2023-11-10T14:05:24.816Z" agent="Mozilla/5.0 (X11; Linux x86_64; rv:109.0) Gecko/20100101 Firefox/115.0" etag="LesZEm7JJDSjDJeKWOnm" version="22.1.0" type="github">
  <diagram name="Page-1" id="929967ad-93f9-6ef4-fab6-5d389245f69c">
    <mxGraphModel dx="2064" dy="1115" grid="1" gridSize="10" guides="1" tooltips="1" connect="1" arrows="1" fold="1" page="1" pageScale="1.5" pageWidth="1169" pageHeight="826" background="none" math="0" shadow="0">
      <root>
        <mxCell id="0" style=";html=1;" />
        <mxCell id="1" style=";html=1;" parent="0" />
        <mxCell id="1672d66443f91eb5-23" value="UML-Komponentendiagramm" style="text;strokeColor=none;fillColor=none;html=1;fontSize=24;fontStyle=1;verticalAlign=middle;align=center;rounded=0;labelBackgroundColor=none;" parent="1" vertex="1">
          <mxGeometry x="120" y="40" width="1510" height="40" as="geometry" />
        </mxCell>
        <mxCell id="JFk3TaI66n7Mgq_tcdBg-1" value="&lt;b&gt;&lt;font style=&quot;font-size: 18px;&quot;&gt;eComm2020&lt;/font&gt;&lt;/b&gt;" style="html=1;dropTarget=0;whiteSpace=wrap;rounded=0;labelBackgroundColor=none;verticalAlign=top;" vertex="1" parent="1">
          <mxGeometry x="200" y="120" width="1510" height="880" as="geometry" />
        </mxCell>
        <mxCell id="JFk3TaI66n7Mgq_tcdBg-2" value="" style="shape=module;jettyWidth=8;jettyHeight=4;rounded=0;labelBackgroundColor=none;" vertex="1" parent="JFk3TaI66n7Mgq_tcdBg-1">
          <mxGeometry x="1" width="20" height="20" relative="1" as="geometry">
            <mxPoint x="-27" y="7" as="offset" />
          </mxGeometry>
        </mxCell>
        <mxCell id="JFk3TaI66n7Mgq_tcdBg-6" value="" style="ellipse;whiteSpace=wrap;html=1;align=center;aspect=fixed;fillColor=none;strokeColor=none;resizable=0;perimeter=centerPerimeter;rotatable=0;allowArrows=0;points=[];outlineConnect=1;" vertex="1" parent="1">
          <mxGeometry x="760" y="1130" width="10" height="10" as="geometry" />
        </mxCell>
        <mxCell id="JFk3TaI66n7Mgq_tcdBg-16" value="" style="ellipse;whiteSpace=wrap;html=1;align=center;aspect=fixed;fillColor=none;strokeColor=none;resizable=0;perimeter=centerPerimeter;rotatable=0;allowArrows=0;points=[];outlineConnect=1;strokeWidth=6;" vertex="1" parent="1">
          <mxGeometry x="620" y="1100" width="10" height="10" as="geometry" />
        </mxCell>
        <mxCell id="JFk3TaI66n7Mgq_tcdBg-25" value="" style="group" vertex="1" connectable="0" parent="1">
          <mxGeometry x="50" y="850" width="165" height="40" as="geometry" />
        </mxCell>
        <mxCell id="JFk3TaI66n7Mgq_tcdBg-15" value="" style="rounded=0;orthogonalLoop=1;jettySize=auto;html=1;endArrow=halfCircle;endFill=0;endSize=6;strokeWidth=6;sketch=0;fontSize=12;curved=1;exitX=0;exitY=0.5;exitDx=0;exitDy=0;" edge="1" parent="JFk3TaI66n7Mgq_tcdBg-25" source="JFk3TaI66n7Mgq_tcdBg-21">
          <mxGeometry relative="1" as="geometry">
            <mxPoint x="120" y="20" as="sourcePoint" />
            <mxPoint y="20" as="targetPoint" />
          </mxGeometry>
        </mxCell>
        <mxCell id="JFk3TaI66n7Mgq_tcdBg-24" value="&lt;font style=&quot;font-size: 14px;&quot;&gt;&lt;b&gt;Payment&lt;/b&gt;&lt;/font&gt;" style="edgeLabel;html=1;align=center;verticalAlign=middle;resizable=0;points=[];" vertex="1" connectable="0" parent="JFk3TaI66n7Mgq_tcdBg-15">
          <mxGeometry x="-0.248" y="-1" relative="1" as="geometry">
            <mxPoint x="-85" y="27" as="offset" />
          </mxGeometry>
        </mxCell>
        <mxCell id="JFk3TaI66n7Mgq_tcdBg-21" value="" style="rounded=0;whiteSpace=wrap;html=1;strokeWidth=6;" vertex="1" parent="JFk3TaI66n7Mgq_tcdBg-25">
          <mxGeometry x="125" width="40" height="40" as="geometry" />
        </mxCell>
        <mxCell id="JFk3TaI66n7Mgq_tcdBg-28" value="&lt;b&gt;Authentication&lt;/b&gt;" style="html=1;dropTarget=0;whiteSpace=wrap;verticalAlign=middle;" vertex="1" parent="1">
          <mxGeometry x="480" y="180" width="180" height="125" as="geometry" />
        </mxCell>
        <mxCell id="JFk3TaI66n7Mgq_tcdBg-29" value="" style="shape=module;jettyWidth=8;jettyHeight=4;" vertex="1" parent="JFk3TaI66n7Mgq_tcdBg-28">
          <mxGeometry x="1" width="20" height="20" relative="1" as="geometry">
            <mxPoint x="-27" y="7" as="offset" />
          </mxGeometry>
        </mxCell>
        <mxCell id="JFk3TaI66n7Mgq_tcdBg-30" value="&lt;b&gt;Stock&lt;/b&gt;" style="html=1;dropTarget=0;whiteSpace=wrap;verticalAlign=middle;" vertex="1" parent="1">
          <mxGeometry x="1420" y="180" width="185" height="730" as="geometry" />
        </mxCell>
        <mxCell id="JFk3TaI66n7Mgq_tcdBg-31" value="" style="shape=module;jettyWidth=8;jettyHeight=4;" vertex="1" parent="JFk3TaI66n7Mgq_tcdBg-30">
          <mxGeometry x="1" width="20" height="20" relative="1" as="geometry">
            <mxPoint x="-27" y="7" as="offset" />
          </mxGeometry>
        </mxCell>
        <mxCell id="JFk3TaI66n7Mgq_tcdBg-32" value="&lt;b&gt;Orders&lt;/b&gt;" style="html=1;dropTarget=0;whiteSpace=wrap;verticalAlign=middle;" vertex="1" parent="1">
          <mxGeometry x="480" y="680" width="650" height="235" as="geometry" />
        </mxCell>
        <mxCell id="JFk3TaI66n7Mgq_tcdBg-33" value="" style="shape=module;jettyWidth=8;jettyHeight=4;" vertex="1" parent="JFk3TaI66n7Mgq_tcdBg-32">
          <mxGeometry x="1" width="20" height="20" relative="1" as="geometry">
            <mxPoint x="-27" y="7" as="offset" />
          </mxGeometry>
        </mxCell>
        <mxCell id="JFk3TaI66n7Mgq_tcdBg-34" value="&lt;b&gt;Shop&lt;/b&gt;" style="html=1;dropTarget=0;whiteSpace=wrap;verticalAlign=middle;" vertex="1" parent="1">
          <mxGeometry x="940" y="180" width="200" height="220" as="geometry" />
        </mxCell>
        <mxCell id="JFk3TaI66n7Mgq_tcdBg-35" value="" style="shape=module;jettyWidth=8;jettyHeight=4;" vertex="1" parent="JFk3TaI66n7Mgq_tcdBg-34">
          <mxGeometry x="1" width="20" height="20" relative="1" as="geometry">
            <mxPoint x="-27" y="7" as="offset" />
          </mxGeometry>
        </mxCell>
        <mxCell id="JFk3TaI66n7Mgq_tcdBg-38" value="" style="rounded=0;orthogonalLoop=1;jettySize=auto;html=1;endArrow=halfCircle;endFill=0;endSize=6;strokeWidth=6;sketch=0;fontSize=12;curved=1;exitX=0;exitY=0.5;exitDx=0;exitDy=0;" edge="1" parent="1">
          <mxGeometry relative="1" as="geometry">
            <mxPoint x="215" y="259.5" as="sourcePoint" />
            <mxPoint x="340" y="259.5" as="targetPoint" />
          </mxGeometry>
        </mxCell>
        <mxCell id="JFk3TaI66n7Mgq_tcdBg-40" value="" style="group" vertex="1" connectable="0" parent="1">
          <mxGeometry x="70" y="240" width="160" height="40" as="geometry" />
        </mxCell>
        <mxCell id="JFk3TaI66n7Mgq_tcdBg-41" value="" style="html=1;rounded=0;strokeWidth=6;" vertex="1" parent="JFk3TaI66n7Mgq_tcdBg-40">
          <mxGeometry x="120" width="40" height="40" as="geometry" />
        </mxCell>
        <mxCell id="JFk3TaI66n7Mgq_tcdBg-42" value="" style="endArrow=none;html=1;rounded=0;align=center;verticalAlign=top;endFill=0;labelBackgroundColor=none;endSize=2;strokeWidth=6;" edge="1" parent="JFk3TaI66n7Mgq_tcdBg-40" source="JFk3TaI66n7Mgq_tcdBg-41" target="JFk3TaI66n7Mgq_tcdBg-44">
          <mxGeometry relative="1" as="geometry" />
        </mxCell>
        <mxCell id="JFk3TaI66n7Mgq_tcdBg-43" value="&lt;font style=&quot;font-size: 14px;&quot;&gt;&lt;b&gt;Login&lt;/b&gt;&lt;/font&gt;" style="edgeLabel;html=1;align=center;verticalAlign=middle;resizable=0;points=[];" vertex="1" connectable="0" parent="JFk3TaI66n7Mgq_tcdBg-42">
          <mxGeometry x="0.3214" y="1" relative="1" as="geometry">
            <mxPoint x="-51" y="25" as="offset" />
          </mxGeometry>
        </mxCell>
        <mxCell id="JFk3TaI66n7Mgq_tcdBg-44" value="" style="ellipse;html=1;fontSize=11;align=center;fillColor=none;points=[];aspect=fixed;resizable=0;verticalAlign=bottom;labelPosition=center;verticalLabelPosition=top;flipH=1;strokeWidth=6;" vertex="1" parent="JFk3TaI66n7Mgq_tcdBg-40">
          <mxGeometry y="16" width="8" height="8" as="geometry" />
        </mxCell>
        <mxCell id="JFk3TaI66n7Mgq_tcdBg-27" value="" style="group" vertex="1" connectable="0" parent="1">
          <mxGeometry x="335" y="240" width="160" height="40" as="geometry" />
        </mxCell>
        <mxCell id="JFk3TaI66n7Mgq_tcdBg-18" value="" style="html=1;rounded=0;strokeWidth=6;" vertex="1" parent="JFk3TaI66n7Mgq_tcdBg-27">
          <mxGeometry x="120" width="40" height="40" as="geometry" />
        </mxCell>
        <mxCell id="JFk3TaI66n7Mgq_tcdBg-19" value="" style="endArrow=none;html=1;rounded=0;align=center;verticalAlign=top;endFill=0;labelBackgroundColor=none;endSize=2;strokeWidth=6;" edge="1" source="JFk3TaI66n7Mgq_tcdBg-18" target="JFk3TaI66n7Mgq_tcdBg-20" parent="JFk3TaI66n7Mgq_tcdBg-27">
          <mxGeometry relative="1" as="geometry" />
        </mxCell>
        <mxCell id="JFk3TaI66n7Mgq_tcdBg-26" value="&lt;font style=&quot;font-size: 14px;&quot;&gt;&lt;b&gt;Information validation&lt;br&gt;&lt;/b&gt;&lt;/font&gt;" style="edgeLabel;html=1;align=center;verticalAlign=middle;resizable=0;points=[];" vertex="1" connectable="0" parent="JFk3TaI66n7Mgq_tcdBg-19">
          <mxGeometry x="0.3214" y="1" relative="1" as="geometry">
            <mxPoint x="-51" y="25" as="offset" />
          </mxGeometry>
        </mxCell>
        <mxCell id="JFk3TaI66n7Mgq_tcdBg-20" value="" style="ellipse;html=1;fontSize=11;align=center;fillColor=none;points=[];aspect=fixed;resizable=0;verticalAlign=bottom;labelPosition=center;verticalLabelPosition=top;flipH=1;strokeWidth=6;" vertex="1" parent="JFk3TaI66n7Mgq_tcdBg-27">
          <mxGeometry y="16" width="8" height="8" as="geometry" />
        </mxCell>
        <mxCell id="JFk3TaI66n7Mgq_tcdBg-45" value="" style="group;rotation=0;direction=west;" vertex="1" connectable="0" parent="1">
          <mxGeometry x="1280" y="240" width="160" height="40" as="geometry" />
        </mxCell>
        <mxCell id="JFk3TaI66n7Mgq_tcdBg-46" value="" style="html=1;rounded=0;strokeWidth=6;rotation=0;" vertex="1" parent="JFk3TaI66n7Mgq_tcdBg-45">
          <mxGeometry x="120" width="40" height="40" as="geometry" />
        </mxCell>
        <mxCell id="JFk3TaI66n7Mgq_tcdBg-47" value="" style="endArrow=none;html=1;rounded=0;align=center;verticalAlign=top;endFill=0;labelBackgroundColor=none;endSize=2;strokeWidth=6;" edge="1" parent="JFk3TaI66n7Mgq_tcdBg-45" source="JFk3TaI66n7Mgq_tcdBg-46" target="JFk3TaI66n7Mgq_tcdBg-49">
          <mxGeometry relative="1" as="geometry" />
        </mxCell>
        <mxCell id="JFk3TaI66n7Mgq_tcdBg-48" value="&lt;font style=&quot;font-size: 14px;&quot;&gt;&lt;b&gt;Product information&lt;br&gt;&lt;/b&gt;&lt;/font&gt;" style="edgeLabel;html=1;align=center;verticalAlign=middle;resizable=0;points=[];rotation=0;" vertex="1" connectable="0" parent="JFk3TaI66n7Mgq_tcdBg-47">
          <mxGeometry x="0.3214" y="1" relative="1" as="geometry">
            <mxPoint x="-42" y="29" as="offset" />
          </mxGeometry>
        </mxCell>
        <mxCell id="JFk3TaI66n7Mgq_tcdBg-49" value="" style="ellipse;html=1;fontSize=11;align=center;fillColor=none;points=[];aspect=fixed;resizable=0;verticalAlign=bottom;labelPosition=center;verticalLabelPosition=top;flipH=1;strokeWidth=6;rotation=0;" vertex="1" parent="JFk3TaI66n7Mgq_tcdBg-45">
          <mxGeometry y="16" width="8" height="8" as="geometry" />
        </mxCell>
        <mxCell id="JFk3TaI66n7Mgq_tcdBg-50" value="" style="group;flipV=1;flipH=1;" vertex="1" connectable="0" parent="1">
          <mxGeometry x="1117.5" y="850" width="160" height="40" as="geometry" />
        </mxCell>
        <mxCell id="JFk3TaI66n7Mgq_tcdBg-51" value="" style="html=1;rounded=0;strokeWidth=6;" vertex="1" parent="JFk3TaI66n7Mgq_tcdBg-50">
          <mxGeometry width="40" height="40" as="geometry" />
        </mxCell>
        <mxCell id="JFk3TaI66n7Mgq_tcdBg-52" value="" style="endArrow=none;html=1;rounded=0;align=center;verticalAlign=top;endFill=0;labelBackgroundColor=none;endSize=2;strokeWidth=6;" edge="1" parent="JFk3TaI66n7Mgq_tcdBg-50" source="JFk3TaI66n7Mgq_tcdBg-51" target="JFk3TaI66n7Mgq_tcdBg-54">
          <mxGeometry relative="1" as="geometry" />
        </mxCell>
        <mxCell id="JFk3TaI66n7Mgq_tcdBg-53" value="&lt;font style=&quot;font-size: 14px;&quot;&gt;&lt;b&gt;Stock update&lt;br&gt;&lt;/b&gt;&lt;/font&gt;" style="edgeLabel;html=1;align=center;verticalAlign=middle;resizable=0;points=[];" vertex="1" connectable="0" parent="JFk3TaI66n7Mgq_tcdBg-52">
          <mxGeometry x="0.3214" y="1" relative="1" as="geometry">
            <mxPoint x="47" y="25" as="offset" />
          </mxGeometry>
        </mxCell>
        <mxCell id="JFk3TaI66n7Mgq_tcdBg-54" value="" style="ellipse;html=1;fontSize=11;align=center;fillColor=none;points=[];aspect=fixed;resizable=0;verticalAlign=bottom;labelPosition=center;verticalLabelPosition=top;flipH=1;strokeWidth=6;" vertex="1" parent="JFk3TaI66n7Mgq_tcdBg-50">
          <mxGeometry x="152" y="16" width="8" height="8" as="geometry" />
        </mxCell>
        <mxCell id="JFk3TaI66n7Mgq_tcdBg-62" value="" style="group;flipV=0;flipH=1;" vertex="1" connectable="0" parent="1">
          <mxGeometry x="215" y="866" width="120" height="8" as="geometry" />
        </mxCell>
        <mxCell id="JFk3TaI66n7Mgq_tcdBg-59" value="" style="endArrow=none;html=1;rounded=0;align=center;verticalAlign=top;endFill=0;labelBackgroundColor=none;endSize=2;strokeWidth=6;" edge="1" parent="JFk3TaI66n7Mgq_tcdBg-62" target="JFk3TaI66n7Mgq_tcdBg-61">
          <mxGeometry relative="1" as="geometry">
            <mxPoint y="4" as="sourcePoint" />
          </mxGeometry>
        </mxCell>
        <mxCell id="JFk3TaI66n7Mgq_tcdBg-61" value="" style="ellipse;html=1;fontSize=11;align=center;fillColor=none;points=[];aspect=fixed;resizable=0;verticalAlign=bottom;labelPosition=center;verticalLabelPosition=top;flipH=1;strokeWidth=6;" vertex="1" parent="JFk3TaI66n7Mgq_tcdBg-62">
          <mxGeometry x="112" width="8" height="8" as="geometry" />
        </mxCell>
        <mxCell id="JFk3TaI66n7Mgq_tcdBg-67" value="" style="group;flipV=1;flipH=1;" vertex="1" connectable="0" parent="1">
          <mxGeometry x="640" y="240" width="295" height="40" as="geometry" />
        </mxCell>
        <mxCell id="JFk3TaI66n7Mgq_tcdBg-68" value="" style="html=1;rounded=0;strokeWidth=6;" vertex="1" parent="JFk3TaI66n7Mgq_tcdBg-67">
          <mxGeometry width="40" height="40" as="geometry" />
        </mxCell>
        <mxCell id="JFk3TaI66n7Mgq_tcdBg-69" value="" style="endArrow=none;html=1;rounded=0;align=center;verticalAlign=top;endFill=0;labelBackgroundColor=none;endSize=2;strokeWidth=6;" edge="1" parent="JFk3TaI66n7Mgq_tcdBg-67" source="JFk3TaI66n7Mgq_tcdBg-68" target="JFk3TaI66n7Mgq_tcdBg-71">
          <mxGeometry relative="1" as="geometry" />
        </mxCell>
        <mxCell id="JFk3TaI66n7Mgq_tcdBg-70" value="&lt;font style=&quot;font-size: 14px;&quot;&gt;&lt;b&gt;User session&lt;br&gt;&lt;/b&gt;&lt;/font&gt;" style="edgeLabel;html=1;align=center;verticalAlign=middle;resizable=0;points=[];" vertex="1" connectable="0" parent="JFk3TaI66n7Mgq_tcdBg-69">
          <mxGeometry x="0.3214" y="1" relative="1" as="geometry">
            <mxPoint x="38" y="27" as="offset" />
          </mxGeometry>
        </mxCell>
        <mxCell id="JFk3TaI66n7Mgq_tcdBg-71" value="" style="ellipse;html=1;fontSize=11;align=center;fillColor=none;points=[];aspect=fixed;resizable=0;verticalAlign=bottom;labelPosition=center;verticalLabelPosition=top;flipH=1;strokeWidth=6;" vertex="1" parent="JFk3TaI66n7Mgq_tcdBg-67">
          <mxGeometry x="152" y="16" width="8" height="8" as="geometry" />
        </mxCell>
        <mxCell id="JFk3TaI66n7Mgq_tcdBg-63" value="" style="group;flipH=0;flipV=1;" vertex="1" connectable="0" parent="JFk3TaI66n7Mgq_tcdBg-67">
          <mxGeometry x="155" width="165" height="40" as="geometry" />
        </mxCell>
        <mxCell id="JFk3TaI66n7Mgq_tcdBg-64" value="" style="rounded=0;orthogonalLoop=1;jettySize=auto;html=1;endArrow=halfCircle;endFill=0;endSize=6;strokeWidth=6;sketch=0;fontSize=12;curved=1;exitX=0;exitY=0.5;exitDx=0;exitDy=0;" edge="1" parent="JFk3TaI66n7Mgq_tcdBg-63" source="JFk3TaI66n7Mgq_tcdBg-66">
          <mxGeometry relative="1" as="geometry">
            <mxPoint x="120" y="20" as="sourcePoint" />
            <mxPoint y="20" as="targetPoint" />
          </mxGeometry>
        </mxCell>
        <mxCell id="JFk3TaI66n7Mgq_tcdBg-66" value="" style="rounded=0;whiteSpace=wrap;html=1;strokeWidth=6;" vertex="1" parent="JFk3TaI66n7Mgq_tcdBg-63">
          <mxGeometry x="125" width="40" height="40" as="geometry" />
        </mxCell>
        <mxCell id="JFk3TaI66n7Mgq_tcdBg-72" value="" style="group;flipH=1;rotation=0;direction=west;" vertex="1" connectable="0" parent="1">
          <mxGeometry x="1117.5" y="240" width="165" height="40" as="geometry" />
        </mxCell>
        <mxCell id="JFk3TaI66n7Mgq_tcdBg-73" value="" style="rounded=0;orthogonalLoop=1;jettySize=auto;html=1;endArrow=halfCircle;endFill=0;endSize=6;strokeWidth=6;sketch=0;fontSize=12;curved=1;exitX=0;exitY=0.5;exitDx=0;exitDy=0;" edge="1" parent="JFk3TaI66n7Mgq_tcdBg-72" source="JFk3TaI66n7Mgq_tcdBg-74">
          <mxGeometry relative="1" as="geometry">
            <mxPoint x="46" y="19" as="sourcePoint" />
            <mxPoint x="166" y="20" as="targetPoint" />
          </mxGeometry>
        </mxCell>
        <mxCell id="JFk3TaI66n7Mgq_tcdBg-74" value="" style="rounded=0;whiteSpace=wrap;html=1;strokeWidth=6;rotation=0;" vertex="1" parent="JFk3TaI66n7Mgq_tcdBg-72">
          <mxGeometry x="1" y="-1" width="40" height="40" as="geometry" />
        </mxCell>
        <mxCell id="JFk3TaI66n7Mgq_tcdBg-75" value="" style="group;flipH=0;flipV=1;" vertex="1" connectable="0" parent="1">
          <mxGeometry x="330" y="850" width="165" height="40" as="geometry" />
        </mxCell>
        <mxCell id="JFk3TaI66n7Mgq_tcdBg-76" value="" style="rounded=0;orthogonalLoop=1;jettySize=auto;html=1;endArrow=halfCircle;endFill=0;endSize=6;strokeWidth=6;sketch=0;fontSize=12;curved=1;exitX=0;exitY=0.5;exitDx=0;exitDy=0;" edge="1" parent="JFk3TaI66n7Mgq_tcdBg-75" source="JFk3TaI66n7Mgq_tcdBg-77">
          <mxGeometry relative="1" as="geometry">
            <mxPoint x="120" y="20" as="sourcePoint" />
            <mxPoint y="20" as="targetPoint" />
          </mxGeometry>
        </mxCell>
        <mxCell id="JFk3TaI66n7Mgq_tcdBg-77" value="" style="rounded=0;whiteSpace=wrap;html=1;strokeWidth=6;" vertex="1" parent="JFk3TaI66n7Mgq_tcdBg-75">
          <mxGeometry x="125" width="40" height="40" as="geometry" />
        </mxCell>
        <mxCell id="JFk3TaI66n7Mgq_tcdBg-78" value="&lt;font style=&quot;font-size: 14px;&quot;&gt;&lt;b&gt;Payment process&lt;br&gt;&lt;/b&gt;&lt;/font&gt;" style="edgeLabel;html=1;align=center;verticalAlign=middle;resizable=0;points=[];" vertex="1" connectable="0" parent="1">
          <mxGeometry x="811" y="904" as="geometry">
            <mxPoint x="-488" y="2" as="offset" />
          </mxGeometry>
        </mxCell>
        <mxCell id="JFk3TaI66n7Mgq_tcdBg-81" value="" style="group;flipH=0;rotation=0;direction=west;" vertex="1" connectable="0" parent="1">
          <mxGeometry x="1275" y="850" width="165" height="40" as="geometry" />
        </mxCell>
        <mxCell id="JFk3TaI66n7Mgq_tcdBg-82" value="" style="rounded=0;orthogonalLoop=1;jettySize=auto;html=1;endArrow=halfCircle;endFill=0;endSize=6;strokeWidth=6;sketch=0;fontSize=12;curved=1;exitX=0;exitY=0.5;exitDx=0;exitDy=0;" edge="1" parent="JFk3TaI66n7Mgq_tcdBg-81" source="JFk3TaI66n7Mgq_tcdBg-83">
          <mxGeometry relative="1" as="geometry">
            <mxPoint x="119" y="19" as="sourcePoint" />
            <mxPoint x="-1" y="20" as="targetPoint" />
          </mxGeometry>
        </mxCell>
        <mxCell id="JFk3TaI66n7Mgq_tcdBg-83" value="" style="rounded=0;whiteSpace=wrap;html=1;strokeWidth=6;rotation=0;" vertex="1" parent="JFk3TaI66n7Mgq_tcdBg-81">
          <mxGeometry x="124" y="-1" width="40" height="40" as="geometry" />
        </mxCell>
        <mxCell id="JFk3TaI66n7Mgq_tcdBg-84" value="" style="group;flipV=1;flipH=1;rotation=-90;" vertex="1" connectable="0" parent="1">
          <mxGeometry x="961.5" y="600" width="160" height="40" as="geometry" />
        </mxCell>
        <mxCell id="JFk3TaI66n7Mgq_tcdBg-85" value="" style="html=1;rounded=0;strokeWidth=6;rotation=-90;" vertex="1" parent="JFk3TaI66n7Mgq_tcdBg-84">
          <mxGeometry x="60" y="60" width="40" height="40" as="geometry" />
        </mxCell>
        <mxCell id="JFk3TaI66n7Mgq_tcdBg-86" value="" style="endArrow=none;html=1;rounded=0;align=center;verticalAlign=top;endFill=0;labelBackgroundColor=none;endSize=2;strokeWidth=6;" edge="1" parent="JFk3TaI66n7Mgq_tcdBg-84" source="JFk3TaI66n7Mgq_tcdBg-85" target="JFk3TaI66n7Mgq_tcdBg-88">
          <mxGeometry relative="1" as="geometry" />
        </mxCell>
        <mxCell id="JFk3TaI66n7Mgq_tcdBg-87" value="&lt;font style=&quot;font-size: 14px;&quot;&gt;&lt;b&gt;Order&lt;br&gt;&lt;/b&gt;&lt;/font&gt;" style="edgeLabel;html=1;align=center;verticalAlign=middle;resizable=0;points=[];rotation=0;" vertex="1" connectable="0" parent="JFk3TaI66n7Mgq_tcdBg-86">
          <mxGeometry x="0.3214" y="1" relative="1" as="geometry">
            <mxPoint x="27" y="-32" as="offset" />
          </mxGeometry>
        </mxCell>
        <mxCell id="JFk3TaI66n7Mgq_tcdBg-88" value="" style="ellipse;html=1;fontSize=11;align=center;fillColor=none;points=[];aspect=fixed;resizable=0;verticalAlign=bottom;labelPosition=center;verticalLabelPosition=top;flipH=1;strokeWidth=6;rotation=-90;" vertex="1" parent="JFk3TaI66n7Mgq_tcdBg-84">
          <mxGeometry x="76" y="-60" width="8" height="8" as="geometry" />
        </mxCell>
        <mxCell id="JFk3TaI66n7Mgq_tcdBg-89" value="" style="group;flipH=0;rotation=-90;direction=west;" vertex="1" connectable="0" parent="1">
          <mxGeometry x="957.5" y="440" width="165" height="40" as="geometry" />
        </mxCell>
        <mxCell id="JFk3TaI66n7Mgq_tcdBg-90" value="" style="rounded=0;orthogonalLoop=1;jettySize=auto;html=1;endArrow=halfCircle;endFill=0;endSize=6;strokeWidth=6;sketch=0;fontSize=12;curved=1;exitX=0;exitY=0.5;exitDx=0;exitDy=0;" edge="1" parent="JFk3TaI66n7Mgq_tcdBg-89" source="JFk3TaI66n7Mgq_tcdBg-91">
          <mxGeometry relative="1" as="geometry">
            <mxPoint x="82" y="-16" as="sourcePoint" />
            <mxPoint x="83" y="104" as="targetPoint" />
          </mxGeometry>
        </mxCell>
        <mxCell id="JFk3TaI66n7Mgq_tcdBg-91" value="" style="rounded=0;whiteSpace=wrap;html=1;strokeWidth=6;rotation=-90;" vertex="1" parent="JFk3TaI66n7Mgq_tcdBg-89">
          <mxGeometry x="62" y="-61" width="40" height="40" as="geometry" />
        </mxCell>
        <mxCell id="JFk3TaI66n7Mgq_tcdBg-92" style="edgeStyle=orthogonalEdgeStyle;orthogonalLoop=1;jettySize=auto;html=1;exitX=1;exitY=0.75;exitDx=0;exitDy=0;entryX=1;entryY=0;entryDx=0;entryDy=0;" edge="1" parent="JFk3TaI66n7Mgq_tcdBg-89" source="JFk3TaI66n7Mgq_tcdBg-91" target="JFk3TaI66n7Mgq_tcdBg-91">
          <mxGeometry relative="1" as="geometry" />
        </mxCell>
      </root>
    </mxGraphModel>
  </diagram>
</mxfile>
